<?xml version="1.0" encoding="UTF-8" standalone="no"?>
<!-- Created with Inkscape (http://www.inkscape.org/) -->

<svg
   width="9.2393627mm"
   height="13.029709mm"
   viewBox="0 0 9.2393627 13.029709"
   version="1.1"
   id="svg1"
   inkscape:version="1.4.3 (1:1.4.3+202512261035+0d15f75042)"
   sodipodi:docname="radical_fern.svg"
   xmlns:inkscape="http://www.inkscape.org/namespaces/inkscape"
   xmlns:sodipodi="http://sodipodi.sourceforge.net/DTD/sodipodi-0.dtd"
   xmlns="http://www.w3.org/2000/svg"
   xmlns:svg="http://www.w3.org/2000/svg">
  <sodipodi:namedview
     id="namedview1"
     pagecolor="#ffffff"
     bordercolor="#000000"
     borderopacity="0.25"
     inkscape:showpageshadow="2"
     inkscape:pageopacity="0.0"
     inkscape:pagecheckerboard="0"
     inkscape:deskcolor="#d1d1d1"
     inkscape:document-units="mm"
     inkscape:zoom="12.158361"
     inkscape:cx="10.774478"
     inkscape:cy="21.919072"
     inkscape:window-width="1920"
     inkscape:window-height="1047"
     inkscape:window-x="3840"
     inkscape:window-y="840"
     inkscape:window-maximized="1"
     inkscape:current-layer="layer1" />
  <defs
     id="defs1">
    <inkscape:path-effect
       effect="fillet_chamfer"
       id="path-effect8-5"
       is_visible="true"
       lpeversion="1"
       nodesatellites_param="F,0,0,1,0,0,0,1 @ F,0,0,1,0,0,0,1 @ F,0,0,1,0,0,0,1 @ F,0,0,1,0,0,0,1 @ F,0,0,1,0,0,0,1 @ F,0,0,1,0,0,0,1 @ F,0,0,1,0,0,0,1 @ F,0,0,1,0,0,0,1 @ F,0,0,1,0,0.56001306,0,1 @ F,0,0,1,0,0.27560512,0,1 @ F,0,0,1,0,0,0,1 @ F,0,0,1,0,0.27560512,0,1 @ F,0,0,1,0,0.27560512,0,1 @ F,0,0,1,0,0,0,1 @ F,0,0,1,0,0.27560512,0,1 @ F,0,0,1,0,0.27560512,0,1 @ F,0,0,1,0,0.27560512,0,1 @ F,0,0,1,0,0.27560512,0,1 @ F,0,0,1,0,0,0,1 @ F,0,0,1,0,0,0,1 @ F,0,0,1,0,0,0,1 @ F,0,0,1,0,0.27560512,0,1 @ F,0,0,1,0,0.27560512,0,1 @ F,0,0,1,0,0.27560512,0,1 @ F,0,0,1,0,0.27560512,0,1 @ F,0,0,1,0,0,0,1 @ F,0,0,1,0,0,0,1 @ F,0,0,1,0,0,0,1 @ F,0,0,1,0,0.27560512,0,1 @ F,0,0,1,0,0.27560512,0,1 @ F,0,0,1,0,0,0,1 @ F,0,0,1,0,0.27560512,0,1 @ F,0,0,1,0,0.27560512,0,1 @ F,0,0,1,0,0.1782742,0,1 @ F,0,0,1,0,0.27560512,0,1 @ F,0,0,1,0,0,0,1 @ F,0,0,1,0,0,0,1 @ F,0,0,1,0,0,0,1 @ F,0,0,1,0,0,0,1 @ F,0,0,1,0,0.27560512,0,1 @ F,0,0,1,0,0.27560512,0,1 @ F,0,0,1,0,0.27560512,0,1 @ F,0,0,1,0,0.27560512,0,1 @ F,0,0,1,0,0,0,1 @ F,0,0,1,0,0.27560512,0,1 @ F,0,1,1,0,0.56001306,0,1 @ F,0,0,1,0,0,0,1 @ F,0,0,1,0,0,0,1 @ F,0,0,1,0,0,0,1 @ F,0,0,1,0,0,0,1 @ F,0,0,1,0,0,0,1 @ F,0,0,1,0,0,0,1 @ F,0,0,1,0,0,0,1"
       radius="0"
       unit="px"
       method="auto"
       mode="F"
       chamfer_steps="1"
       flexible="false"
       use_knot_distance="true"
       apply_no_radius="true"
       apply_with_radius="true"
       only_selected="false"
       hide_knots="false" />
  </defs>
  <g
     inkscape:label="Calque 1"
     inkscape:groupmode="layer"
     id="layer1"
     transform="translate(-103.1875,-126.73541)">
    <path
       d="m 31.761719,6.7441406 c -0.638468,0.041733 -1.254756,0.2505297 -1.78711,0.6054688 L 16.025391,16.650391 c -1.206461,0.803921 -1.755173,2.295311 -1.357422,3.689453 l 0.292969,1.023437 c 1.986321,6.952047 1.986321,14.321391 0,21.273438 l -0.292969,1.023437 c -0.397751,1.394142 0.150961,2.885532 1.357422,3.689453 l 12.817276,8.546735 a 0.51274514,0.51274514 166.17296 0 0 0.73443,-0.180761 l 0.681387,-1.24716 c 0.07298,-0.133576 0.03637,-0.32038 -0.06857,-0.430526 -0.440231,-0.46205 -0.689656,-1.0783 -0.689909,-1.723444 -3.05e-4,-0.800978 0.38262,-1.547516 1.019373,-2.01538 C 30.641971,50.208992 30.75,50.025044 30.75,49.872832 l 0,-10.88043 c 0,-0.152212 -0.109047,-0.334309 -0.233166,-0.422285 -0.656311,-0.465195 -1.053773,-1.223177 -1.053943,-2.038867 1.7e-4,-0.815691 0.397632,-1.573673 1.053945,-2.038869 C 30.640953,34.404406 30.75,34.22231 30.75,34.070098 v -4.446837 c 0,-0.152212 -0.109067,-0.334273 -0.233208,-0.422217 -0.450499,-0.319143 -0.782899,-0.778868 -0.944789,-1.306686 -0.04461,-0.145447 -0.173002,-0.329107 -0.304818,-0.40522 l -8.327339,-4.808354 c -0.131816,-0.07611 -0.343308,-0.07156 -0.480849,-0.0065 -0.332408,0.15714 -0.696482,0.239519 -1.066419,0.239821 -1.380712,0 -2.5,-1.119288 -2.5,-2.5 0,-1.380712 1.119288,-2.5 2.5,-2.5 1.261488,-4.72e-4 2.30964,0.934773 2.477499,2.157013 0.02071,0.150766 0.129374,0.336304 0.261209,0.412384 l 7.997193,4.615113 c 0.131835,0.07608 0.333016,0.05748 0.460078,-0.02619 C 30.675619,25.015057 30.75,24.851216 30.75,24.699004 V 14.590058 c 0,-0.152212 -0.10803,-0.336161 -0.230629,-0.426242 C 29.88262,13.695952 29.499695,12.949415 29.5,12.148438 c 0,-1.380712 1.119288,-2.5000005 2.5,-2.5000005 1.380712,0 2.5,1.1192885 2.5,2.5000005 3.05e-4,0.800978 -0.382621,1.547515 -1.019373,2.015379 C 33.358029,14.253898 33.25,14.437846 33.25,14.590058 v 10.151915 c 0,0.152212 0.106971,0.338013 0.227999,0.430195 0.616273,0.469391 0.984693,1.202931 0.984892,1.987988 -1.99e-4,0.785058 -0.36862,1.518599 -0.984894,1.987989 C 33.35697,29.240326 33.25,29.426127 33.25,29.578339 v 4.534728 c 0,0.152212 0.106981,0.337996 0.228017,0.430167 0.400426,0.304932 0.700243,0.724378 0.858788,1.203631 0.03092,0.09346 0.119036,0.211014 0.204302,0.260245 l 8.933106,5.157816 c 0.131818,0.07611 0.35373,0.09198 0.500899,0.05342 0.206689,-0.05415 0.41984,-0.08168 0.634263,-0.08163 1.380712,0 2.5,1.119288 2.5,2.5 0,1.380712 -1.119288,2.5 -2.5,2.5 -1.380712,0 -2.5,-1.119288 -2.5,-2.5 -4.5e-5,-0.02833 3.92e-4,-0.05666 0.0013,-0.08496 0.0049,-0.152056 -0.08278,-0.336115 -0.214591,-0.412231 l -8.008986,-4.624751 c -0.131814,-0.07612 -0.329075,-0.05318 -0.452036,0.03641 C 33.335966,38.623392 33.25,38.797221 33.25,38.949433 v 10.923399 c 0,0.152212 0.10803,0.336161 0.230629,0.426242 0.636751,0.467865 1.019676,1.214402 1.019371,2.015379 -6.2e-5,0.641831 -0.24676,1.255275 -0.682872,1.716767 -0.104491,0.110573 -0.140989,0.297882 -0.06827,0.431599 l 0.6789,1.24834 a 0.51178541,0.51178541 13.884384 0 0 0.7335,0.181311 l 12.813349,-8.542861 c 1.206461,-0.803921 1.755173,-2.295311 1.357422,-3.689453 l -0.292969,-1.023437 c -1.986321,-6.952047 -1.986321,-14.321391 0,-21.273438 l 0.292969,-1.023437 C 49.729782,18.945702 49.18107,17.454312 47.974609,16.650391 L 34.025391,7.3496094 C 33.357861,6.9045351 32.562307,6.6917467 31.761719,6.7441406 Z"
       style="fill:#49734e;fill-opacity:1;stroke-width:2"
       id="path7-2"
       inkscape:path-effect="#path-effect8-5"
       inkscape:original-d="m 31.761719,6.7441406 a 3.6507792,3.6507792 0 0 0 -1.78711,0.6054688 L 16.025391,16.650391 a 3.3342624,3.3342624 0 0 0 -1.357422,3.689453 l 0.292969,1.023437 a 38.717847,38.717847 0 0 1 0,21.273438 l -0.292969,1.023437 a 3.3342624,3.3342624 0 0 0 1.357422,3.689453 l 13.283203,8.857422 1.082031,-1.980469 A 2.5,2.5 0 0 1 29.5,52.314453 2.5,2.5 0 0 1 30.75,50.148437 V 38.716797 A 2.5,2.5 0 0 1 29.462891,36.53125 2.5,2.5 0 0 1 30.75,34.345703 v -4.998047 a 2.5,2.5 0 0 1 -1.244141,-1.720703 l -8.804687,-5.083984 a 2.5,2.5 0 0 1 -1.308594,0.371093 2.5,2.5 0 0 1 -2.5,-2.5 2.5,2.5 0 0 1 2.5,-2.5 2.5,2.5 0 0 1 2.5,2.431641 l 8.474609,4.890625 A 2.5,2.5 0 0 1 30.75,24.974609 V 14.314453 A 2.5,2.5 0 0 1 29.5,12.148438 2.5,2.5 0 0 1 32,9.6484375 2.5,2.5 0 0 1 34.5,12.148438 2.5,2.5 0 0 1 33.25,14.314453 V 25.017578 A 2.5,2.5 0 0 1 34.462891,27.160156 2.5,2.5 0 0 1 33.25,29.302734 v 5.085938 a 2.5,2.5 0 0 1 1.136719,1.529297 l 9.326172,5.384765 a 2.5,2.5 0 0 1 0.896484,-0.166015 2.5,2.5 0 0 1 2.5,2.5 2.5,2.5 0 0 1 -2.5,2.5 2.5,2.5 0 0 1 -2.5,-2.5 2.5,2.5 0 0 1 0.02539,-0.359375 L 33.648437,38.376953 A 2.5,2.5 0 0 1 33.25,38.673828 v 11.474609 a 2.5,2.5 0 0 1 1.25,2.166016 2.5,2.5 0 0 1 -0.882813,1.90625 l 1.078125,1.982422 13.279297,-8.853516 a 3.3342624,3.3342624 0 0 0 1.357422,-3.689453 l -0.292969,-1.023437 a 38.717847,38.717847 0 0 1 0,-21.273438 l 0.292969,-1.023437 A 3.3342624,3.3342624 0 0 0 47.974609,16.650391 L 34.025391,7.3496094 A 3.6507792,3.6507792 0 0 0 31.761719,6.7441406 Z"
       transform="matrix(-0.26458333,0,0,0.26458333,116.27385,124.95309)" />
  </g>
</svg>
